<?xml version="1.0" encoding="UTF-8"?><svg id="Calque_2" xmlns="http://www.w3.org/2000/svg" xmlns:xlink="http://www.w3.org/1999/xlink" viewBox="0 0 1093.21 1093.17"><defs><style>.cls-1{fill:url(#Dégradé_sans_nom_29-3);}.cls-2{fill:url(#Dégradé_sans_nom_29);}.cls-3{fill:url(#Dégradé_sans_nom_29-5);}.cls-4{fill:url(#Dégradé_sans_nom_29-4);}.cls-5{fill:url(#Dégradé_sans_nom_29-6);}.cls-6{fill:url(#Dégradé_sans_nom_29-2);}</style><linearGradient id="Dégradé_sans_nom_29" x1="239.17" y1="118.56" x2="795.24" y2="892.7" gradientUnits="userSpaceOnUse"><stop offset="0" stop-color="#66f"/><stop offset="1" stop-color="#64d7c1"/></linearGradient><linearGradient id="Dégradé_sans_nom_29-2" x1="239.16" y1="118.57" x2="795.23" y2="892.71" xlink:href="#Dégradé_sans_nom_29"/><linearGradient id="Dégradé_sans_nom_29-3" x1="396" y1="5.91" x2="952.07" y2="780.05" xlink:href="#Dégradé_sans_nom_29"/><linearGradient id="Dégradé_sans_nom_29-4" x1="-1.32" y1="291.31" x2="554.76" y2="1065.45" xlink:href="#Dégradé_sans_nom_29"/><linearGradient id="Dégradé_sans_nom_29-5" x1="141.07" y1="189.03" x2="697.15" y2="963.17" xlink:href="#Dégradé_sans_nom_29"/><linearGradient id="Dégradé_sans_nom_29-6" x1="114.86" y1="207.85" x2="670.94" y2="981.99" xlink:href="#Dégradé_sans_nom_29"/></defs><g id="Calque_1-2"><path class="cls-2" d="m690.21,481.77c-.11.31-.23.58-.34.88l-6.64,17.19c-16.88,37.75-44.2,67.41-78.8,86.82-27.51,15.38-58.59,23.25-90.08,23.59l-107.92,1.11-3.38.04v-.04c.12-.31.23-.54.35-.81l6.64-17.23c16.88-37.75,44.2-67.41,78.8-86.82,27.47-15.38,58.55-23.25,90.04-23.56l111.34-1.19Z"/><path class="cls-6" d="m774.66,260.08s-.04,0-.04-.04c-33.53-26.63-71.86-47.5-113.45-61.08.23.15.42.31.65.42v.04c.31.19.58.38.88.58,68.71,46.73,97.76,109.04,99.91,113.79.04.04.04.08.04.12.04.04.08.12.08.12,0,.04.04.08.04.08,10.28,21.18,17.57,44.16,21.26,68.25,1.88,12.05,2.84,24.32,2.84,36.87,0,46.46-13.2,89.89-35.99,126.69-1.5,2.38-2.99,4.76-4.57,7.1-11.28,16.84-24.63,32.23-39.71,45.73-42.62,38.18-93.96,64.42-161.52,67.14h-152.05c-.08,2.69-.15,5.37-.15,8.06,0,26.28,5.1,51.33,14.39,74.24,11.51,28.31,29.39,53.41,51.83,73.39,11.05,9.86,23.21,18.49,36.29,25.67.04.04.08.04.15.08,1.11.69,2.19,1.34,3.3,1.96,41.13,23.83,86.86,34.64,132.1,33.22,5.3-.11,10.55-.46,15.85-.96.11,0,.23,0,.34-.04,54.44-5.14,107.23-28.01,149.32-67.14,59.01-54.9,99.83-129.1,112.49-212.55,2.72-18.03,4.14-36.45,4.14-55.21,0-116.1-54.1-219.53-138.43-286.52Zm-88.7,84.91c-11.47-28.31-29.35-53.41-51.83-73.4-11.05-9.86-23.21-18.49-36.26-25.67-.04-.04-.12-.04-.15-.08-1.11-.69-2.23-1.34-3.34-1.96-95.72-55.44-216.54-40.44-297.57,34.91-59.01,54.9-99.87,129.1-112.53,212.55-2.68,18.03-4.1,36.45-4.1,55.25,0,116.06,54.06,219.49,138.39,286.48t.04.04c33.3,26.43,71.32,47.19,112.61,60.77.31.11.58.19.88.31-.15-.08-.31-.19-.42-.27-.08-.04-.15-.12-.23-.15t-.04-.04c-.27-.19-.58-.38-.84-.58-68.71-46.73-97.8-109.04-99.95-113.8,0-.04,0-.08-.04-.12-.04-.04-.04-.12-.08-.12v-.08c-10.32-21.18-17.57-44.12-21.29-68.25-1.84-12.05-2.8-24.32-2.8-36.87,0-46.46,13.16-89.89,35.99-126.69,1.46-2.38,2.99-4.76,4.57-7.06,11.24-16.88,24.63-32.27,39.71-45.77,42.63-38.17,93.92-64.42,161.49-67.14h152.05v-.08c.12-2.65.15-5.33.15-7.98,0-26.24-5.1-51.33-14.39-74.24Zm0,0c-11.47-28.31-29.35-53.41-51.83-73.4-11.05-9.86-23.21-18.49-36.26-25.67-.04-.04-.12-.04-.15-.08-1.11-.69-2.23-1.34-3.34-1.96-95.72-55.44-216.54-40.44-297.57,34.91-59.01,54.9-99.87,129.1-112.53,212.55-2.68,18.03-4.1,36.45-4.1,55.25,0,116.06,54.06,219.49,138.39,286.48t.04.04c33.3,26.43,71.32,47.19,112.61,60.77.31.11.58.19.88.31-.15-.08-.31-.19-.42-.27-.08-.04-.15-.12-.23-.15t-.04-.04c-.27-.19-.58-.38-.84-.58-68.71-46.73-97.8-109.04-99.95-113.8,0-.04,0-.08-.04-.12-.04-.04-.04-.12-.08-.12v-.08c-10.32-21.18-17.57-44.12-21.29-68.25-1.84-12.05-2.8-24.32-2.8-36.87,0-46.46,13.16-89.89,35.99-126.69,1.46-2.38,2.99-4.76,4.57-7.06,11.24-16.88,24.63-32.27,39.71-45.77,42.63-38.17,93.92-64.42,161.49-67.14h152.05v-.08c.12-2.65.15-5.33.15-7.98,0-26.24-5.1-51.33-14.39-74.24Zm88.7-84.91s-.04,0-.04-.04c-33.53-26.63-71.86-47.5-113.45-61.08.23.15.42.31.65.42v.04c.31.19.58.38.88.58,68.71,46.73,97.76,109.04,99.91,113.79.04.04.04.08.04.12.04.04.08.12.08.12,0,.04.04.08.04.08,10.28,21.18,17.57,44.16,21.26,68.25,1.88,12.05,2.84,24.32,2.84,36.87,0,46.46-13.2,89.89-35.99,126.69-1.5,2.38-2.99,4.76-4.57,7.1-11.28,16.84-24.63,32.23-39.71,45.73-42.62,38.18-93.96,64.42-161.52,67.14h-152.05c-.08,2.69-.15,5.37-.15,8.06,0,26.28,5.1,51.33,14.39,74.24,11.51,28.31,29.39,53.41,51.83,73.39,11.05,9.86,23.21,18.49,36.29,25.67.04.04.08.04.15.08,1.11.69,2.19,1.34,3.3,1.96,41.13,23.83,86.86,34.64,132.1,33.22,5.3-.11,10.55-.46,15.85-.96.11,0,.23,0,.34-.04,54.44-5.14,107.23-28.01,149.32-67.14,59.01-54.9,99.83-129.1,112.49-212.55,2.72-18.03,4.14-36.45,4.14-55.21,0-116.1-54.1-219.53-138.43-286.52Zm0,0s-.04,0-.04-.04c-33.53-26.63-71.86-47.5-113.45-61.08.23.15.42.31.65.42v.04c.31.19.58.38.88.58,68.71,46.73,97.76,109.04,99.91,113.79.04.04.04.08.04.12.04.04.08.12.08.12,0,.04.04.08.04.08,10.28,21.18,17.57,44.16,21.26,68.25,1.88,12.05,2.84,24.32,2.84,36.87,0,46.46-13.2,89.89-35.99,126.69-1.5,2.38-2.99,4.76-4.57,7.1-11.28,16.84-24.63,32.23-39.71,45.73-42.62,38.18-93.96,64.42-161.52,67.14h-152.05c-.08,2.69-.15,5.37-.15,8.06,0,26.28,5.1,51.33,14.39,74.24,11.51,28.31,29.39,53.41,51.83,73.39,11.05,9.86,23.21,18.49,36.29,25.67.04.04.08.04.15.08,1.11.69,2.19,1.34,3.3,1.96,41.13,23.83,86.86,34.64,132.1,33.22,5.3-.11,10.55-.46,15.85-.96.11,0,.23,0,.34-.04,54.44-5.14,107.23-28.01,149.32-67.14,59.01-54.9,99.83-129.1,112.49-212.55,2.72-18.03,4.14-36.45,4.14-55.21,0-116.1-54.1-219.53-138.43-286.52Zm-88.7,84.91c-11.47-28.31-29.35-53.41-51.83-73.4-11.05-9.86-23.21-18.49-36.26-25.67-.04-.04-.12-.04-.15-.08-1.11-.69-2.23-1.34-3.34-1.96-95.72-55.44-216.54-40.44-297.57,34.91-59.01,54.9-99.87,129.1-112.53,212.55-2.68,18.03-4.1,36.45-4.1,55.25,0,116.06,54.06,219.49,138.39,286.48t.04.04c33.3,26.43,71.32,47.19,112.61,60.77.31.11.58.19.88.31-.15-.08-.31-.19-.42-.27-.08-.04-.15-.12-.23-.15t-.04-.04c-.27-.19-.58-.38-.84-.58-68.71-46.73-97.8-109.04-99.95-113.8,0-.04,0-.08-.04-.12-.04-.04-.04-.12-.08-.12v-.08c-10.32-21.18-17.57-44.12-21.29-68.25-1.84-12.05-2.8-24.32-2.8-36.87,0-46.46,13.16-89.89,35.99-126.69,1.46-2.38,2.99-4.76,4.57-7.06,11.24-16.88,24.63-32.27,39.71-45.77,42.63-38.17,93.92-64.42,161.49-67.14h152.05v-.08c.12-2.65.15-5.33.15-7.98,0-26.24-5.1-51.33-14.39-74.24Zm0,0c-11.47-28.31-29.35-53.41-51.83-73.4-11.05-9.86-23.21-18.49-36.26-25.67-.04-.04-.12-.04-.15-.08-1.11-.69-2.23-1.34-3.34-1.96-95.72-55.44-216.54-40.44-297.57,34.91-59.01,54.9-99.87,129.1-112.53,212.55-2.68,18.03-4.1,36.45-4.1,55.25,0,116.06,54.06,219.49,138.39,286.48t.04.04c33.3,26.43,71.32,47.19,112.61,60.77.31.11.58.19.88.31-.15-.08-.31-.19-.42-.27-.08-.04-.15-.12-.23-.15t-.04-.04c-.27-.19-.58-.38-.84-.58-68.71-46.73-97.8-109.04-99.95-113.8,0-.04,0-.08-.04-.12-.04-.04-.04-.12-.08-.12v-.08c-10.32-21.18-17.57-44.12-21.29-68.25-1.84-12.05-2.8-24.32-2.8-36.87,0-46.46,13.16-89.89,35.99-126.69,1.46-2.38,2.99-4.76,4.57-7.06,11.24-16.88,24.63-32.27,39.71-45.77,42.63-38.17,93.92-64.42,161.49-67.14h152.05v-.08c.12-2.65.15-5.33.15-7.98,0-26.24-5.1-51.33-14.39-74.24Zm88.7-84.91s-.04,0-.04-.04c-33.53-26.63-71.86-47.5-113.45-61.08.23.15.42.31.65.42v.04c.31.19.58.38.88.58,68.71,46.73,97.76,109.04,99.91,113.79.04.04.04.08.04.12.04.04.08.12.08.12,0,.04.04.08.04.08,10.28,21.18,17.57,44.16,21.26,68.25,1.88,12.05,2.84,24.32,2.84,36.87,0,46.46-13.2,89.89-35.99,126.69-1.5,2.38-2.99,4.76-4.57,7.1-11.28,16.84-24.63,32.23-39.71,45.73-42.62,38.18-93.96,64.42-161.52,67.14h-152.05c-.08,2.69-.15,5.37-.15,8.06,0,26.28,5.1,51.33,14.39,74.24,11.51,28.31,29.39,53.41,51.83,73.39,11.05,9.86,23.21,18.49,36.29,25.67.04.04.08.04.15.08,1.11.69,2.19,1.34,3.3,1.96,41.13,23.83,86.86,34.64,132.1,33.22,5.3-.11,10.55-.46,15.85-.96.11,0,.23,0,.34-.04,54.44-5.14,107.23-28.01,149.32-67.14,59.01-54.9,99.83-129.1,112.49-212.55,2.72-18.03,4.14-36.45,4.14-55.21,0-116.1-54.1-219.53-138.43-286.52Zm0,0s-.04,0-.04-.04c-33.53-26.63-71.86-47.5-113.45-61.08.23.15.42.31.65.42v.04c.31.19.58.38.88.58,68.71,46.73,97.76,109.04,99.91,113.79.04.04.04.08.04.12.04.04.08.12.08.12,0,.04.04.08.04.08,10.28,21.18,17.57,44.16,21.26,68.25,1.88,12.05,2.84,24.32,2.84,36.87,0,46.46-13.2,89.89-35.99,126.69-1.5,2.38-2.99,4.76-4.57,7.1-11.28,16.84-24.63,32.23-39.71,45.73-42.62,38.18-93.96,64.42-161.52,67.14h-152.05c-.08,2.69-.15,5.37-.15,8.06,0,26.28,5.1,51.33,14.39,74.24,11.51,28.31,29.39,53.41,51.83,73.39,11.05,9.86,23.21,18.49,36.29,25.67.04.04.08.04.15.08,1.11.69,2.19,1.34,3.3,1.96,41.13,23.83,86.86,34.64,132.1,33.22,5.3-.11,10.55-.46,15.85-.96.11,0,.23,0,.34-.04,54.44-5.14,107.23-28.01,149.32-67.14,59.01-54.9,99.83-129.1,112.49-212.55,2.72-18.03,4.14-36.45,4.14-55.21,0-116.1-54.1-219.53-138.43-286.52Zm-343.22,633.7s-.04,0-.04-.04c-.27-.19-.58-.38-.84-.58-68.71-46.73-97.8-109.04-99.95-113.8,0-.04,0-.08-.04-.12-.04-.04-.04-.12-.08-.12v-.08c-10.32-21.18-17.57-44.12-21.29-68.25-1.84-12.05-2.8-24.32-2.8-36.87,0-46.46,13.16-89.89,35.99-126.69,1.46-2.38,2.99-4.76,4.57-7.06,11.24-16.88,24.63-32.27,39.71-45.77,42.63-38.17,93.92-64.42,161.49-67.14h152.05v-.08c.12-2.65.15-5.33.15-7.98,0-26.24-5.1-51.33-14.39-74.24-11.47-28.31-29.35-53.41-51.83-73.4-11.05-9.86-23.21-18.49-36.26-25.67-.04-.04-.12-.04-.15-.08-1.11-.69-2.23-1.34-3.34-1.96-95.72-55.44-216.54-40.44-297.57,34.91-59.01,54.9-99.87,129.1-112.53,212.55-2.68,18.03-4.1,36.45-4.1,55.25,0,116.06,54.06,219.49,138.39,286.48t.04.04c33.3,26.43,71.32,47.19,112.61,60.77.31.11.58.19.88.31-.15-.08-.31-.19-.42-.27-.08-.04-.15-.12-.23-.15ZM546.61,0C244.74,0,0,244.7,0,546.61s244.74,546.57,546.61,546.57,546.6-244.7,546.6-546.57S848.51,0,546.61,0Zm365.06,790.46c-3.38,5.03-6.83,9.97-10.4,14.85l-.04.04c-6.71,9.17-13.73,17.99-21.1,26.59l-.04.04c-9.67,11.28-19.87,22.02-30.62,32.19t-.08.08c-.31.27-.58.54-.88.81-78.61,74.93-185.46,119.89-302.67,119.89-90.28,0-174.15-27.28-243.86-74.09t-.08-.04c-117.21-78.65-194.4-212.43-194.4-364.21,0-90.28,27.28-174.18,74.09-243.9,3.34-5.03,6.83-9.97,10.36-14.81t.08-.08c6.68-9.13,13.74-17.99,21.1-26.59,0,0,0-.04.04-.04,10.47-12.2,21.6-23.83,33.34-34.84,3.91-3.22,8.02-6.48,12.28-9.71,77.11-67.49,178.06-108.42,288.63-108.42,90.24,0,174.14,27.32,243.86,74.08t.04.04c117.25,78.65,194.4,212.43,194.4,364.25,0,90.24-27.28,174.14-74.05,243.86Zm-137.01-530.38s-.04,0-.04-.04c-33.53-26.63-71.86-47.5-113.45-61.08.23.15.42.31.65.42v.04c.31.19.58.38.88.58,68.71,46.73,97.76,109.04,99.91,113.79.04.04.04.08.04.12.04.04.08.12.08.12,0,.04.04.08.04.08,10.28,21.18,17.57,44.16,21.26,68.25,1.88,12.05,2.84,24.32,2.84,36.87,0,46.46-13.2,89.89-35.99,126.69-1.5,2.38-2.99,4.76-4.57,7.1-11.28,16.84-24.63,32.23-39.71,45.73-42.62,38.18-93.96,64.42-161.52,67.14h-152.05c-.08,2.69-.15,5.37-.15,8.06,0,26.28,5.1,51.33,14.39,74.24,11.51,28.31,29.39,53.41,51.83,73.39,11.05,9.86,23.21,18.49,36.29,25.67.04.04.08.04.15.08,1.11.69,2.19,1.34,3.3,1.96,41.13,23.83,86.86,34.64,132.1,33.22,5.3-.11,10.55-.46,15.85-.96.11,0,.23,0,.34-.04,54.44-5.14,107.23-28.01,149.32-67.14,59.01-54.9,99.83-129.1,112.49-212.55,2.72-18.03,4.14-36.45,4.14-55.21,0-116.1-54.1-219.53-138.43-286.52Zm-343.22,633.7s-.04,0-.04-.04c-.27-.19-.58-.38-.84-.58-68.71-46.73-97.8-109.04-99.95-113.8,0-.04,0-.08-.04-.12-.04-.04-.04-.12-.08-.12v-.08c-10.32-21.18-17.57-44.12-21.29-68.25-1.84-12.05-2.8-24.32-2.8-36.87,0-46.46,13.16-89.89,35.99-126.69,1.46-2.38,2.99-4.76,4.57-7.06,11.24-16.88,24.63-32.27,39.71-45.77,42.63-38.17,93.92-64.42,161.49-67.14h152.05v-.08c.12-2.65.15-5.33.15-7.98,0-26.24-5.1-51.33-14.39-74.24-11.47-28.31-29.35-53.41-51.83-73.4-11.05-9.86-23.21-18.49-36.26-25.67-.04-.04-.12-.04-.15-.08-1.11-.69-2.23-1.34-3.34-1.96-95.72-55.44-216.54-40.44-297.57,34.91-59.01,54.9-99.87,129.1-112.53,212.55-2.68,18.03-4.1,36.45-4.1,55.25,0,116.06,54.06,219.49,138.39,286.48t.04.04c33.3,26.43,71.32,47.19,112.61,60.77.31.11.58.19.88.31-.15-.08-.31-.19-.42-.27-.08-.04-.15-.12-.23-.15Zm254.52-548.79c-11.47-28.31-29.35-53.41-51.83-73.4-11.05-9.86-23.21-18.49-36.26-25.67-.04-.04-.12-.04-.15-.08-1.11-.69-2.23-1.34-3.34-1.96-95.72-55.44-216.54-40.44-297.57,34.91-59.01,54.9-99.87,129.1-112.53,212.55-2.68,18.03-4.1,36.45-4.1,55.25,0,116.06,54.06,219.49,138.39,286.48t.04.04c33.3,26.43,71.32,47.19,112.61,60.77.31.11.58.19.88.31-.15-.08-.31-.19-.42-.27-.08-.04-.15-.12-.23-.15t-.04-.04c-.27-.19-.58-.38-.84-.58-68.71-46.73-97.8-109.04-99.95-113.8,0-.04,0-.08-.04-.12-.04-.04-.04-.12-.08-.12v-.08c-10.32-21.18-17.57-44.12-21.29-68.25-1.84-12.05-2.8-24.32-2.8-36.87,0-46.46,13.16-89.89,35.99-126.69,1.46-2.38,2.99-4.76,4.57-7.06,11.24-16.88,24.63-32.27,39.71-45.77,42.63-38.17,93.92-64.42,161.49-67.14h152.05v-.08c.12-2.65.15-5.33.15-7.98,0-26.24-5.1-51.33-14.39-74.24Zm88.7-84.91s-.04,0-.04-.04c-33.53-26.63-71.86-47.5-113.45-61.08.23.15.42.31.65.42v.04c.31.19.58.38.88.58,68.71,46.73,97.76,109.04,99.91,113.79.04.04.04.08.04.12.04.04.08.12.08.12,0,.04.04.08.04.08,10.28,21.18,17.57,44.16,21.26,68.25,1.88,12.05,2.84,24.32,2.84,36.87,0,46.46-13.2,89.89-35.99,126.69-1.5,2.38-2.99,4.76-4.57,7.1-11.28,16.84-24.63,32.23-39.71,45.73-42.62,38.18-93.96,64.42-161.52,67.14h-152.05c-.08,2.69-.15,5.37-.15,8.06,0,26.28,5.1,51.33,14.39,74.24,11.51,28.31,29.39,53.41,51.83,73.39,11.05,9.86,23.21,18.49,36.29,25.67.04.04.08.04.15.08,1.11.69,2.19,1.34,3.3,1.96,41.13,23.83,86.86,34.64,132.1,33.22,5.3-.11,10.55-.46,15.85-.96.11,0,.23,0,.34-.04,54.44-5.14,107.23-28.01,149.32-67.14,59.01-54.9,99.83-129.1,112.49-212.55,2.72-18.03,4.14-36.45,4.14-55.21,0-116.1-54.1-219.53-138.43-286.52Zm0,0s-.04,0-.04-.04c-33.53-26.63-71.86-47.5-113.45-61.08.23.15.42.31.65.42v.04c.31.19.58.38.88.58,68.71,46.73,97.76,109.04,99.91,113.79.04.04.04.08.04.12.04.04.08.12.08.12,0,.04.04.08.04.08,10.28,21.18,17.57,44.16,21.26,68.25,1.88,12.05,2.84,24.32,2.84,36.87,0,46.46-13.2,89.89-35.99,126.69-1.5,2.38-2.99,4.76-4.57,7.1-11.28,16.84-24.63,32.23-39.71,45.73-42.62,38.18-93.96,64.42-161.52,67.14h-152.05c-.08,2.69-.15,5.37-.15,8.06,0,26.28,5.1,51.33,14.39,74.24,11.51,28.31,29.39,53.41,51.83,73.39,11.05,9.86,23.21,18.49,36.29,25.67.04.04.08.04.15.08,1.11.69,2.19,1.34,3.3,1.96,41.13,23.83,86.86,34.64,132.1,33.22,5.3-.11,10.55-.46,15.85-.96.11,0,.23,0,.34-.04,54.44-5.14,107.23-28.01,149.32-67.14,59.01-54.9,99.83-129.1,112.49-212.55,2.72-18.03,4.14-36.45,4.14-55.21,0-116.1-54.1-219.53-138.43-286.52Zm-88.7,84.91c-11.47-28.31-29.35-53.41-51.83-73.4-11.05-9.86-23.21-18.49-36.26-25.67-.04-.04-.12-.04-.15-.08-1.11-.69-2.23-1.34-3.34-1.96-95.72-55.44-216.54-40.44-297.57,34.91-59.01,54.9-99.87,129.1-112.53,212.55-2.68,18.03-4.1,36.45-4.1,55.25,0,116.06,54.06,219.49,138.39,286.48t.04.04c33.3,26.43,71.32,47.19,112.61,60.77.31.11.58.19.88.31-.15-.08-.31-.19-.42-.27-.08-.04-.15-.12-.23-.15t-.04-.04c-.27-.19-.58-.38-.84-.58-68.71-46.73-97.8-109.04-99.95-113.8,0-.04,0-.08-.04-.12-.04-.04-.04-.12-.08-.12v-.08c-10.32-21.18-17.57-44.12-21.29-68.25-1.84-12.05-2.8-24.32-2.8-36.87,0-46.46,13.16-89.89,35.99-126.69,1.46-2.38,2.99-4.76,4.57-7.06,11.24-16.88,24.63-32.27,39.71-45.77,42.63-38.17,93.92-64.42,161.49-67.14h152.05v-.08c.12-2.65.15-5.33.15-7.98,0-26.24-5.1-51.33-14.39-74.24Zm0,0c-11.47-28.31-29.35-53.41-51.83-73.4-11.05-9.86-23.21-18.49-36.26-25.67-.04-.04-.12-.04-.15-.08-1.11-.69-2.23-1.34-3.34-1.96-95.72-55.44-216.54-40.44-297.57,34.91-59.01,54.9-99.87,129.1-112.53,212.55-2.68,18.03-4.1,36.45-4.1,55.25,0,116.06,54.06,219.49,138.39,286.48t.04.04c33.3,26.43,71.32,47.19,112.61,60.77.31.11.58.19.88.31-.15-.08-.31-.19-.42-.27-.08-.04-.15-.12-.23-.15t-.04-.04c-.27-.19-.58-.38-.84-.58-68.71-46.73-97.8-109.04-99.95-113.8,0-.04,0-.08-.04-.12-.04-.04-.04-.12-.08-.12v-.08c-10.32-21.18-17.57-44.12-21.29-68.25-1.84-12.05-2.8-24.32-2.8-36.87,0-46.46,13.16-89.89,35.99-126.69,1.46-2.38,2.99-4.76,4.57-7.06,11.24-16.88,24.63-32.27,39.71-45.77,42.63-38.17,93.92-64.42,161.49-67.14h152.05v-.08c.12-2.65.15-5.33.15-7.98,0-26.24-5.1-51.33-14.39-74.24Zm88.7-84.91s-.04,0-.04-.04c-33.53-26.63-71.86-47.5-113.45-61.08.23.15.42.31.65.42v.04c.31.19.58.38.88.58,68.71,46.73,97.76,109.04,99.91,113.79.04.04.04.08.04.12.04.04.08.12.08.12,0,.04.04.08.04.08,10.28,21.18,17.57,44.16,21.26,68.25,1.88,12.05,2.84,24.32,2.84,36.87,0,46.46-13.2,89.89-35.99,126.69-1.5,2.38-2.99,4.76-4.57,7.1-11.28,16.84-24.63,32.23-39.71,45.73-42.62,38.18-93.96,64.42-161.52,67.14h-152.05c-.08,2.69-.15,5.37-.15,8.06,0,26.28,5.1,51.33,14.39,74.24,11.51,28.31,29.39,53.41,51.83,73.39,11.05,9.86,23.21,18.49,36.29,25.67.04.04.08.04.15.08,1.11.69,2.19,1.34,3.3,1.96,41.13,23.83,86.86,34.64,132.1,33.22,5.3-.11,10.55-.46,15.85-.96.11,0,.23,0,.34-.04,54.44-5.14,107.23-28.01,149.32-67.14,59.01-54.9,99.83-129.1,112.49-212.55,2.72-18.03,4.14-36.45,4.14-55.21,0-116.1-54.1-219.53-138.43-286.52Zm0,0s-.04,0-.04-.04c-33.53-26.63-71.86-47.5-113.45-61.08.23.15.42.31.65.42v.04c.31.19.58.38.88.58,68.71,46.73,97.76,109.04,99.91,113.79.04.04.04.08.04.12.04.04.08.12.08.12,0,.04.04.08.04.08,10.28,21.18,17.57,44.16,21.26,68.25,1.88,12.05,2.84,24.32,2.84,36.87,0,46.46-13.2,89.89-35.99,126.69-1.5,2.38-2.99,4.76-4.57,7.1-11.28,16.84-24.63,32.23-39.71,45.73-42.62,38.18-93.96,64.42-161.52,67.14h-152.05c-.08,2.69-.15,5.37-.15,8.06,0,26.28,5.1,51.33,14.39,74.24,11.51,28.31,29.39,53.41,51.83,73.39,11.05,9.86,23.21,18.49,36.29,25.67.04.04.08.04.15.08,1.11.69,2.19,1.34,3.3,1.96,41.13,23.83,86.86,34.64,132.1,33.22,5.3-.11,10.55-.46,15.85-.96.11,0,.23,0,.34-.04,54.44-5.14,107.23-28.01,149.32-67.14,59.01-54.9,99.83-129.1,112.49-212.55,2.72-18.03,4.14-36.45,4.14-55.21,0-116.1-54.1-219.53-138.43-286.52Zm-88.7,84.91c-11.47-28.31-29.35-53.41-51.83-73.4-11.05-9.86-23.21-18.49-36.26-25.67-.04-.04-.12-.04-.15-.08-1.11-.69-2.23-1.34-3.34-1.96-95.72-55.44-216.54-40.44-297.57,34.91-59.01,54.9-99.87,129.1-112.53,212.55-2.68,18.03-4.1,36.45-4.1,55.25,0,116.06,54.06,219.49,138.39,286.48t.04.04c33.3,26.43,71.32,47.19,112.61,60.77.31.11.58.19.88.31-.15-.08-.31-.19-.42-.27-.08-.04-.15-.12-.23-.15t-.04-.04c-.27-.19-.58-.38-.84-.58-68.71-46.73-97.8-109.04-99.95-113.8,0-.04,0-.08-.04-.12-.04-.04-.04-.12-.08-.12v-.08c-10.32-21.18-17.57-44.12-21.29-68.25-1.84-12.05-2.8-24.32-2.8-36.87,0-46.46,13.16-89.89,35.99-126.69,1.46-2.38,2.99-4.76,4.57-7.06,11.24-16.88,24.63-32.27,39.71-45.77,42.63-38.17,93.92-64.42,161.49-67.14h152.05v-.08c.12-2.65.15-5.33.15-7.98,0-26.24-5.1-51.33-14.39-74.24Zm88.7-84.91s-.04,0-.04-.04c-33.53-26.63-71.86-47.5-113.45-61.08.23.15.42.31.65.42v.04c.31.19.58.38.88.58,68.71,46.73,97.76,109.04,99.91,113.79.04.04.04.08.04.12.04.04.08.12.08.12,0,.04.04.08.04.08,10.28,21.18,17.57,44.16,21.26,68.25,1.88,12.05,2.84,24.32,2.84,36.87,0,46.46-13.2,89.89-35.99,126.69-1.5,2.38-2.99,4.76-4.57,7.1-11.28,16.84-24.63,32.23-39.71,45.73-42.62,38.18-93.96,64.42-161.52,67.14h-152.05c-.08,2.69-.15,5.37-.15,8.06,0,26.28,5.1,51.33,14.39,74.24,11.51,28.31,29.39,53.41,51.83,73.39,11.05,9.86,23.21,18.49,36.29,25.67.04.04.08.04.15.08,1.11.69,2.19,1.34,3.3,1.96,41.13,23.83,86.86,34.64,132.1,33.22,5.3-.11,10.55-.46,15.85-.96.11,0,.23,0,.34-.04,54.44-5.14,107.23-28.01,149.32-67.14,59.01-54.9,99.83-129.1,112.49-212.55,2.72-18.03,4.14-36.45,4.14-55.21,0-116.1-54.1-219.53-138.43-286.52Zm-88.7,84.91c-11.47-28.31-29.35-53.41-51.83-73.4-11.05-9.86-23.21-18.49-36.26-25.67-.04-.04-.12-.04-.15-.08-1.11-.69-2.23-1.34-3.34-1.96-95.72-55.44-216.54-40.44-297.57,34.91-59.01,54.9-99.87,129.1-112.53,212.55-2.68,18.03-4.1,36.45-4.1,55.25,0,116.06,54.06,219.49,138.39,286.48t.04.04c33.3,26.43,71.32,47.19,112.61,60.77.31.11.58.19.88.31-.15-.08-.31-.19-.42-.27-.08-.04-.15-.12-.23-.15t-.04-.04c-.27-.19-.58-.38-.84-.58-68.71-46.73-97.8-109.04-99.95-113.8,0-.04,0-.08-.04-.12-.04-.04-.04-.12-.08-.12v-.08c-10.32-21.18-17.57-44.12-21.29-68.25-1.84-12.05-2.8-24.32-2.8-36.87,0-46.46,13.16-89.89,35.99-126.69,1.46-2.38,2.99-4.76,4.57-7.06,11.24-16.88,24.63-32.27,39.71-45.77,42.63-38.17,93.92-64.42,161.49-67.14h152.05v-.08c.12-2.65.15-5.33.15-7.98,0-26.24-5.1-51.33-14.39-74.24Z"/><path class="cls-1" d="m700.19,427.21v.08h-3.07v-.08h3.07Z"/><path class="cls-4" d="m432.08,894.2c-.31-.12-.58-.19-.88-.31l.46.04c.11.08.27.19.42.27Z"/><path class="cls-3" d="m646.78,881.54c-5.3.5-10.55.84-15.85.96l15.85-.96Z"/><polygon class="cls-5" points="406.42 611.37 403.04 611.41 403.04 611.37 406.42 611.37"/></g></svg>