<?xml version="1.0" encoding="UTF-8"?><svg id="Calque_2" xmlns="http://www.w3.org/2000/svg" viewBox="0 0 2666.69 1529.3"><defs><style>.cls-1{fill:#66f;}.cls-2{fill:#64d7c1;}</style></defs><g id="Calque_1-2"><path class="cls-2" d="m1455.73,103.05l13.8-13.03-157.14-65.16-166.34,23-75.89,32.96-42.16,29.9,2.3,13.03s197.77-85.85,425.44-20.7Z"/><polygon class="cls-2" points="1498.85 350.74 1510.92 350.74 1510.92 410.67 1487.06 410.67 1498.85 350.74"/><path class="cls-1" d="m1204.2,863.85l14.37.57,441.2-27.7s-46.86,39.28-54.33,39.07c-7.47-.22-223.31,137.53-401.25-11.94Z"/><polygon class="cls-1" points="1179.19 553.25 1154.47 553.25 1154.47 613.76 1165.11 613.04 1179.19 553.25"/><path class="cls-2" d="m1816.19,482.01c0,99.26-30,191.51-81.44,268.18h0c-3.69,5.52-7.5,10.95-11.42,16.3-.01.02-.03.04-.06.07-7.36,10.05-15.1,19.8-23.2,29.23-.02.02-.03.04-.04.05-10.89,12.67-22.41,24.79-34.54,36.24-52.46,44.66-136.96,89.58-260.26,89.58-84.7,0-149.32-25.27-197.05-57-.13-.09-.26-.17-.38-.26-.13-.04-.27-.09-.4-.13-.25-.16-.49-.33-.73-.49-.01.01-.01,0-.02,0-.31-.21-.63-.42-.94-.65-75.56-51.4-107.52-119.91-109.88-125.14-.01-.04-.03-.07-.05-.11-.03-.06-.05-.12-.07-.15-.01-.03-.02-.05-.02-.05-11.33-23.33-19.34-48.56-23.41-75.09-2.03-13.21-3.09-26.74-3.09-40.52,0-51.11,14.47-98.85,39.56-139.32,1.62-2.62,3.3-5.21,5.01-7.78,12.4-18.55,27.1-35.45,43.68-50.3,46.87-41.97,103.3-70.83,177.58-73.83h167.19c-.12,3.02-.3,6.01-.55,9-1.33,16.43-4.5,32.35-9.29,47.54v.02c-.35,1.12-.73,2.23-1.14,3.33l-122.41,1.29c-34.63.36-68.8,8.99-99.03,25.92-38.07,21.33-68.1,53.95-86.68,95.48l-7.3,18.92c-.12.32-.24.63-.35.95-.42,1.1-.8,2.21-1.15,3.33t-.01.02c-4.79,15.2-7.96,31.11-9.29,47.54-.25,2.99-.43,5.99-.55,9.01-.12,2.95-.18,5.9-.18,8.87,0,28.87,5.62,56.42,15.84,81.63,12.63,31.14,32.29,58.71,57,80.7,12.14,10.84,25.52,20.32,39.87,28.22.06.04.11.06.17.1,1.22.73,2.44,1.44,3.65,2.15,105.29,60.98,238.15,44.48,327.23-38.4,64.9-60.38,109.81-141.97,123.72-233.74,2.99-19.8,4.54-40.07,4.54-60.71,0-127.63-59.47-241.38-152.2-315.04,0,0-.03-.02-.04-.04-36.88-29.28-79.02-52.23-124.78-67.18-47.99-32.23-113.18-58.03-198.87-58.03-111.14,0-190.47,37.4-243.58,77.5C1101.62,44.99,1212.65,0,1334.2,0c99.26,0,191.5,30,268.17,81.44.02,0,.03.02.05.03,128.92,86.51,213.77,233.62,213.77,400.53Z"/><path class="cls-1" d="m1666.37,831.23c-86.57,82.96-204.5,132.78-333.89,132.78-99.26,0-191.5-30-268.17-81.44-.02,0-.03-.02-.05-.03-128.92-86.51-213.77-233.62-213.77-400.53,0-99.26,30-191.51,81.44-268.18h0c3.69-5.52,7.5-10.95,11.42-16.3.01-.02.03-.04.06-.07,7.36-10.05,15.1-19.8,23.2-29.23.02-.02.03-.04.04-.05,11.53-13.42,23.78-26.21,36.7-38.28,4.29-3.57,8.78-7.14,13.48-10.68,53.11-40.11,132.44-77.5,243.58-77.5,85.69,0,150.88,25.8,198.87,58.03.25.16.49.33.73.49.01,0,.01,0,.02,0,.31.21.63.42.94.65,75.56,51.4,107.52,119.9,109.88,125.14.01.04.03.07.05.11.03.06.05.12.07.15.01.03.02.05.02.05,11.33,23.33,19.34,48.56,23.41,75.09,2.03,13.21,3.09,26.74,3.09,40.52,0,51.11-14.47,98.84-39.56,139.32-1.62,2.62-3.3,5.21-5.01,7.78-12.4,18.55-27.1,35.45-43.68,50.3-46.87,41.97-103.29,70.84-177.58,73.84h-167.19c.12-3.02.3-6.02.55-9.01,1.33-16.43,4.5-32.35,9.29-47.54t.01-.02c.35-1.12.73-2.23,1.15-3.33l122.39-1.28c34.64-.37,68.8-9,99.03-25.93,38.08-21.33,68.11-53.95,86.68-95.48l7.31-18.91c.12-.32.24-.63.36-.95.41-1.1.79-2.21,1.14-3.33v-.02c4.79-15.2,7.96-31.11,9.29-47.54.25-2.99.43-5.98.55-9,.12-2.95.18-5.9.18-8.88,0-28.87-5.62-56.42-15.84-81.63-12.63-31.14-32.29-58.71-57-80.7-12.14-10.84-25.52-20.32-39.87-28.22-.06-.04-.11-.06-.17-.1-1.22-.73-2.44-1.44-3.65-2.15-105.29-60.98-238.15-44.48-327.23,38.4-64.9,60.38-109.81,141.97-123.72,233.74-2.99,19.8-4.54,40.08-4.54,60.71,0,127.63,59.47,241.38,152.2,315.04.01.01.03.02.04.04,36.88,29.28,79.02,52.23,124.78,67.18.13.04.27.09.4.13.12.09.25.17.38.26,47.73,31.73,112.35,57,197.05,57,123.99,0,208.73-45.53,261.13-90.43,0,0,.01,0,.01,0Z"/><path class="cls-1" d="m218.11,1027.63h64.77v481.82h-64.77v-29.08c-28.42,33.05-63.45,37.67-83.28,37.67-85.92,0-134.83-71.38-134.83-148.05,0-90.55,62.13-146.07,135.49-146.07,20.49,0,56.18,5.29,82.62,39.66v-235.95Zm-152.01,343.68c0,48.25,30.4,88.57,77.33,88.57,40.98,0,78.65-29.74,78.65-87.9s-37.67-89.89-78.65-89.89c-46.93,0-77.33,39.66-77.33,89.23Z"/><path class="cls-1" d="m568.39,1231.2h64.77v278.25h-64.77v-29.08c-28.42,33.05-63.45,37.67-83.28,37.67-85.92,0-134.83-71.38-134.83-148.05,0-90.55,62.13-146.07,135.49-146.07,20.49,0,56.18,5.29,82.62,39.66v-32.38Zm-152.01,140.12c0,48.25,30.4,88.57,77.33,88.57,40.98,0,78.65-29.74,78.65-87.9s-37.67-89.89-78.65-89.89c-46.93,0-77.33,39.66-77.33,89.23Z"/><path class="cls-1" d="m1078.62,1231.2h64.77v278.25h-64.77v-29.08c-28.42,33.05-63.45,37.67-83.28,37.67-85.92,0-134.83-71.38-134.83-148.05,0-90.55,62.13-146.07,135.49-146.07,20.49,0,56.18,5.29,82.62,39.66v-32.38Zm-152.01,140.12c0,48.25,30.4,88.57,77.33,88.57,40.98,0,78.65-29.74,78.65-87.9s-37.67-89.89-78.65-89.89c-46.93,0-77.33,39.66-77.33,89.23Z"/><path class="cls-1" d="m717.09,1290.67h-19.61v-59.47h19.61v-101.78h64.8v101.78h93.22c-17.4,9.73-37.36,35.85-43.58,59.47h-49.64v221.68h-64.8v-221.68Z"/><path class="cls-1" d="m1314.57,1483.26h86.31v25.55h-86.31v10.95h-23.47v-10.95h-9.81c-16.95,0-27.64-4.43-34.42-10.69-4.95-4.69-10.69-12.78-10.69-26.08,0-5.48.78-10.95,3.13-16.43h25.29c-3.13,5.22-3.91,8.61-3.91,12.26,0,3.13.52,7.82,4.17,11.21,1.3,1.3,5.21,4.17,13.04,4.17h13.2v-27.64h23.47v27.64Z"/><path class="cls-1" d="m1346.12,1329.42c33.64,0,58.15,25.55,58.15,58.67s-24.51,58.67-58.15,58.67-57.89-25.55-57.89-58.67,23.99-58.67,57.89-58.67Zm.26,26.08c-25.03,0-35.2,16.43-35.2,32.59s10.17,32.59,35.2,32.59c21.12,0,34.94-12.52,34.94-32.59s-13.82-32.59-34.94-32.59Z"/><path class="cls-1" d="m1291.1,1302.82v-25.55h9.91c-3.39-2.87-7.04-7.04-9.13-10.69-2.87-4.95-3.65-9.91-3.65-15.65,0-6.26,1.04-13.04,5.22-20.08l23.21,10.43c-3.65,5.74-3.91,10.43-3.91,13.04,0,5.48.78,10.95,6,15.91,7.56,7.04,17.99,7.04,25.29,7.04h56.84v25.55h-109.78Z"/><path class="cls-2" d="m1723.64,1440.22c-12.56-7.02-28.24-4.41-37.93,6.22-3.51,3.87-7.42,7.54-11.71,10.82-13.2,9.9-26.42,13.88-44.27,13.88-15.86,0-34.37-2.66-49.57-17.84-13.88-13.88-22.49-36.37-23.81-56.19h139.26c35.12,0,61.1-33.47,51.5-67.25-11.5-40.59-30.15-58.34-30.15-58.34-16.52-17.18-44.95-36.35-89.22-36.35-39.67,0-70.08,14.54-93.2,37.67-29.09,29.75-44.29,71.4-44.29,114.37s14.54,79.95,40.99,106.4c26.42,26.45,56.83,35.69,93.84,35.69,29.75,0,59.49-6.6,81.96-21.14,8.23-5.19,16.31-11.9,23.81-19.71,5.77-6.03,8.56-13.67,8.56-21.24,0-10.68-5.49-21.24-15.77-26.99Zm-159.95-104.94c3.87-10.47,9.9-20.01,17.14-26.73,8.58-8.6,23.12-17.84,45.61-17.84,21.14,0,35.03,7.92,43.61,15.86,8.01,7.47,14.28,17.51,17.8,29.11,1.3,4.24-1.84,8.56-6.27,8.56h-111.73c-4.62,0-7.73-4.62-6.15-8.96Z"/><path class="cls-2" d="m1909.95,1242.46h-19.82v-69.42c0-8.93-3.63-17.02-9.48-22.89-5.87-5.87-13.98-9.5-22.91-9.5-17.89,0-32.39,14.52-32.39,32.39v69.42c-14.97,0-27.08,12.12-27.08,27.08v5.3c0,7.47,3.02,14.26,7.92,19.16,4.9,4.9,11.69,7.92,19.16,7.92v186.4c0,8.93,3.63,17.02,9.48,22.89,5.87,5.87,13.98,9.5,22.91,9.5,17.89,0,32.39-14.52,32.39-32.39v-186.4h19.82c8.2,0,15.65-3.32,21.03-8.72,5.4-5.37,8.72-12.82,8.72-21.03,0-16.41-13.32-29.72-29.75-29.72Z"/><path class="cls-2" d="m2222.57,1350.18v137.28c0,17.13-12.94,31.96-30.03,33.17-9.86.7-18.88-3.03-25.26-9.42-5.85-5.87-9.48-13.95-9.48-22.89v-132.19c0-16.52,0-34.37-12.56-48.25-7.26-7.94-19.82-14.54-36.35-14.54-21.8,0-38.99,10.56-47.59,23.12-7.47,10.68-11.5,26.54-12.78,51.08-.31,5.82-.45,12.14-.45,18.97v101.8c0,5.99-1.63,11.62-4.48,16.43-5.63,9.55-16.03,15.96-27.91,15.96-8.93,0-17.02-3.63-22.89-9.5-5.87-5.87-9.5-13.95-9.5-22.89v-317.54c0-18.01,14.6-32.61,32.61-32.61h0c18.01,0,32.61,14.6,32.61,32.61v95c27.65-28,57.82-30.62,74.25-30.62,50.89,0,74.01,26.45,81.96,37.67,17.18,25.13,17.84,57.51,17.84,77.34Z"/><path class="cls-2" d="m2359.8,1262.97c-5.87-5.85-13.95-9.48-22.89-9.48-17.89,0-32.39,14.5-32.39,32.36v202.47c0,8.93,3.63,17.02,9.48,22.89,5.87,5.87,13.95,9.5,22.91,9.5,17.87,0,32.39-14.52,32.39-32.39v-202.47c0-8.93-3.63-17.02-9.5-22.89Z"/><path class="cls-2" d="m2588.04,1293.35c10.77,0,24.25,1.56,39.1,7.64,18.88,7.73,39.55-6.55,39.55-26.97v-.87c0-11.67-6.98-22.27-17.75-26.73-22.16-9.15-41.46-11.24-58.27-11.24-54.85,0-89.88,19.16-111.68,40.99-20.51,20.48-42.31,55.51-42.31,107.72s19.82,83.94,39.65,104.44c26.45,27.74,59.49,40.97,105.76,40.97,29.91,0,51.5-5.77,67.2-12.61,5.3-2.31,9.64-6.08,12.66-10.7,3.04-4.64,4.74-10.11,4.74-15.89,0-20.39-20.6-34.63-39.5-26.97-13.58,5.49-27.58,8.01-40.47,8.01-23.78,0-44.29-8.6-58.81-22.49-12.56-12.56-25.13-34.37-25.13-66.75s11.9-52.21,23.81-64.11c11.88-11.88,31.04-24.44,61.45-24.44Z"/><circle class="cls-2" cx="2334.69" cy="1180.03" r="39.11"/></g></svg>